# xmcd
#
# Track frame offsets: 
#        150
#        12721
#        25834
#        37674
#        49470
#        62953
#        75674
#        88357
#        100011
#        112502
#        124972
#        135232
#        146919
#        159837
#        172258
#        185470
#        197252
#        209874
#        223654
#        235565
#
# Disc length: 3302 seconds
#
# Revision: 1
# Processed by: cddbd v1.5.2PL0 Copyright (c) Steve Scherf et al.
# Submitted via: ExactAudioCopyFreeDBPlugin 1.0
#
DISCID=180ce414
DTITLE=Robert Nighthawk, Johnny Otis - ABC Of The Blues - Vol. 34 Nigh
DTITLE=thawk, Otis
DYEAR=2010
DGENRE=Blues
TTITLE0=Robert Nighthawk - Crying Won't Help You
TTITLE1=Robert Nighthawk - Seventy-Four
TTITLE2=Robert Nighthawk - Nighthawk Boogie
TTITLE3=Robert Nighthawk - Kansas City
TTITLE4=Robert Nighthawk - Bricks In My Pillow
TTITLE5=Robert Nighthawk - Maggie Campbell
TTITLE6=Robert Nighthawk - Feel So Bad
TTITLE7=Robert Nighthawk - You Missed A Good Man
TTITLE8=Robert Nighthawk - The Moon Is Rising
TTITLE9=Robert Nighthawk - Take It Easy, Baby
TTITLE10=Johnny Otis - Good Ole Blues
TTITLE11=Johnny Otis - Mean Ole Gal
TTITLE12=Johnny Otis - Hangover Blues
TTITLE13=Johnny Otis - Thursday Night Blues
TTITLE14=Johnny Otis - I Gotta Guy
TTITLE15=Johnny Otis - Get Together Blues
TTITLE16=Johnny Otis - Double Crossing Blues
TTITLE17=Johnny Otis - Head Hunter
TTITLE18=Johnny Otis - Going To See My Baby
TTITLE19=Johnny Otis - New Orleans Shuffle
EXTD=
EXTT0=
EXTT1=
EXTT2=
EXTT3=
EXTT4=
EXTT5=
EXTT6=
EXTT7=
EXTT8=
EXTT9=
EXTT10=
EXTT11=
EXTT12=
EXTT13=
EXTT14=
EXTT15=
EXTT16=
EXTT17=
EXTT18=
EXTT19=
PLAYORDER=
